<svg id="visual" viewBox="0 0 960 540" width="960" height="540" xmlns="http://www.w3.org/2000/svg" xmlns:xlink="http://www.w3.org/1999/xlink" version="1.1"><rect x="0" y="0" width="960" height="540" fill="#000000"></rect><path d="M0 464L7.7 465.5C15.3 467 30.7 470 45.8 467.8C61 465.7 76 458.3 91.2 457C106.3 455.7 121.7 460.3 137 464C152.3 467.7 167.7 470.3 183 467.8C198.3 465.3 213.7 457.7 228.8 457.2C244 456.7 259 463.3 274.2 467C289.3 470.7 304.7 471.3 320 470.7C335.3 470 350.7 468 365.8 466.2C381 464.3 396 462.7 411.2 461.2C426.3 459.7 441.7 458.3 457 459.2C472.3 460 487.7 463 503 464C518.3 465 533.7 464 548.8 465.3C564 466.7 579 470.3 594.2 468C609.3 465.7 624.7 457.3 640 456.2C655.3 455 670.7 461 685.8 463.7C701 466.3 716 465.7 731.2 462C746.3 458.3 761.7 451.7 777 452.2C792.3 452.7 807.7 460.3 823 461.7C838.3 463 853.7 458 868.8 459C884 460 899 467 914.2 467.8C929.3 468.7 944.7 463.3 952.3 460.7L960 458L960 541L952.3 541C944.7 541 929.3 541 914.2 541C899 541 884 541 868.8 541C853.7 541 838.3 541 823 541C807.7 541 792.3 541 777 541C761.7 541 746.3 541 731.2 541C716 541 701 541 685.8 541C670.7 541 655.3 541 640 541C624.7 541 609.3 541 594.2 541C579 541 564 541 548.8 541C533.7 541 518.3 541 503 541C487.7 541 472.3 541 457 541C441.7 541 426.3 541 411.2 541C396 541 381 541 365.8 541C350.7 541 335.3 541 320 541C304.7 541 289.3 541 274.2 541C259 541 244 541 228.8 541C213.7 541 198.3 541 183 541C167.7 541 152.3 541 137 541C121.7 541 106.3 541 91.2 541C76 541 61 541 45.8 541C30.7 541 15.3 541 7.7 541L0 541Z" fill="#d0bd6c" stroke-linecap="round" stroke-linejoin="miter"></path></svg>